<svg width="378" height="300" viewBox="0 0 378 300" fill="none" xmlns="http://www.w3.org/2000/svg">
<line x1="224.839" y1="154.884" x2="282.839" y2="194.884" stroke="#5EB299" stroke-width="10"/>
<path d="M284.252 116.141C286.617 114.716 287.379 111.643 285.953 109.278C284.528 106.913 281.455 106.151 279.09 107.577L284.252 116.141ZM222.29 153.487L284.252 116.141L279.09 107.577L217.128 144.923L222.29 153.487Z" fill="#5EB299"/>
<path d="M284.582 30.9366C286.721 29.1903 287.039 26.0406 285.293 23.9014C283.547 21.7622 280.397 21.4437 278.258 23.1899L284.582 30.9366ZM226.582 78.2825L284.582 30.9366L278.258 23.1899L220.258 70.5358L226.582 78.2825Z" fill="#5EB299"/>
<line x1="5" y1="-5" x2="69.8708" y2="-5" transform="matrix(-0.774668 -0.632369 -0.632369 0.774668 281 277.346)" stroke="#5EB299" stroke-width="10" stroke-linecap="round"/>
<path d="M82 71.25C79.2386 71.25 77 73.4886 77 76.25C77 79.0114 79.2386 81.25 82 81.25V71.25ZM195.337 76.25C195.337 90.9776 207.276 102.917 222.004 102.917C236.731 102.917 248.67 90.9776 248.67 76.25C248.67 61.5224 236.731 49.5833 222.004 49.5833C207.276 49.5833 195.337 61.5224 195.337 76.25ZM82 81.25H222.004V71.25H82V81.25Z" fill="#5EB299"/>
<path d="M0.333333 151C0.333333 165.728 12.2724 177.667 27 177.667C41.7276 177.667 53.6667 165.728 53.6667 151C53.6667 136.272 41.7276 124.333 27 124.333C12.2724 124.333 0.333333 136.272 0.333333 151ZM195.336 151C195.336 165.728 207.275 177.667 222.003 177.667C236.73 177.667 248.669 165.728 248.669 151C248.669 136.272 236.73 124.333 222.003 124.333C207.275 124.333 195.336 136.272 195.336 151ZM27 156H222.003V146H27V156Z" fill="#5EB299"/>
<path d="M87 221C84.2386 221 82 223.239 82 226C82 228.761 84.2386 231 87 231V221ZM195.333 226C195.333 240.728 207.272 252.667 222 252.667C236.728 252.667 248.667 240.728 248.667 226C248.667 211.272 236.728 199.333 222 199.333C207.272 199.333 195.333 211.272 195.333 226ZM87 231L222 231V221L87 221V231Z" fill="#5EB299"/>
<path d="M85.007 78.9907C86.6587 76.7777 86.2037 73.6447 83.9907 71.993C81.7777 70.3413 78.6447 70.7963 76.993 73.0093L85.007 78.9907ZM36.0168 144.629L85.007 78.9907L76.993 73.0093L28.0028 138.648L36.0168 144.629Z" fill="#5EB299"/>
<path d="M80.9334 228.909C82.54 231.155 85.6631 231.673 87.909 230.067C90.155 228.46 90.6732 225.337 89.0666 223.091L80.9334 228.909ZM89.0666 223.091L40.0569 154.579L31.9236 160.397L80.9334 228.909L89.0666 223.091Z" fill="#5EB299"/>
<path d="M282.048 22.0002C279.287 21.9737 277.027 24.1906 277 26.9519C276.974 29.7132 279.191 31.9732 281.952 31.9998L282.048 22.0002ZM322.335 27.388C322.193 42.1149 334.017 54.1682 348.744 54.3099C363.471 54.4515 375.524 42.6278 375.666 27.9009C375.807 13.174 363.983 1.12065 349.257 0.979002C334.53 0.837352 322.476 12.661 322.335 27.388ZM281.952 31.9998L348.952 32.6442L349.048 22.6447L282.048 22.0002L281.952 31.9998Z" fill="#5EB299"/>
<path d="M282.048 267C279.287 266.974 277.027 269.191 277 271.952C276.974 274.713 279.191 276.973 281.952 277L282.048 267ZM322.335 272.388C322.193 287.115 334.017 299.168 348.744 299.31C363.471 299.452 375.524 287.628 375.666 272.901C375.807 258.174 363.983 246.121 349.257 245.979C334.53 245.837 322.476 257.661 322.335 272.388ZM281.952 277L348.952 277.644L349.048 267.645L282.048 267L281.952 277Z" fill="#5EB299"/>
<path d="M282.5 106.5C279.739 106.5 277.5 108.739 277.5 111.5C277.5 114.261 279.739 116.5 282.5 116.5V106.5ZM323.18 111.5C323.18 126.228 335.119 138.167 349.846 138.167C364.574 138.167 376.513 126.228 376.513 111.5C376.513 96.7724 364.574 84.8333 349.846 84.8333C335.119 84.8333 323.18 96.7724 323.18 111.5ZM282.5 116.5H349.846V106.5H282.5V116.5Z" fill="#5EB299"/>
<path d="M282 189C279.239 189 277 191.239 277 194C277 196.761 279.239 199 282 199V189ZM324.333 194C324.333 208.728 336.272 220.667 351 220.667C365.728 220.667 377.667 208.728 377.667 194C377.667 179.272 365.728 167.333 351 167.333C336.272 167.333 324.333 179.272 324.333 194ZM282 199H351V189H282V199Z" fill="#5EB299"/>
</svg>
