<svg width="1228" height="312" viewBox="0 0 1228 312" fill="none" xmlns="http://www.w3.org/2000/svg">
<line x1="210.419" y1="156.942" x2="268.419" y2="196.942" stroke="#5EB299" stroke-width="5"/>
<path d="M269.961 114C271.144 113.287 271.525 111.751 270.812 110.568C270.099 109.386 268.563 109.005 267.38 109.718L269.961 114ZM208 151.346L269.961 114L267.38 109.718L205.418 147.064L208 151.346Z" fill="#5EB299"/>
<path d="M270.001 28.9999C271.07 28.1268 271.23 26.5519 270.357 25.4823C269.483 24.4127 267.909 24.2534 266.839 25.1266L270.001 28.9999ZM212.001 76.3458L270.001 28.9999L266.839 25.1266L208.839 72.4725L212.001 76.3458Z" fill="#5EB299"/>
<line x1="2.5" y1="-2.5" x2="72.3708" y2="-2.5" transform="matrix(-0.774668 -0.632369 -0.632369 0.774668 268 277.346)" stroke="#5EB299" stroke-width="5" stroke-linecap="round"/>
<path d="M69 73.75C67.6193 73.75 66.5 74.8693 66.5 76.25C66.5 77.6307 67.6193 78.75 69 78.75V73.75ZM195.67 76.25C195.67 83.6138 201.64 89.5833 209.004 89.5833C216.368 89.5833 222.337 83.6138 222.337 76.25C222.337 68.8862 216.368 62.9167 209.004 62.9167C201.64 62.9167 195.67 68.8862 195.67 76.25ZM69 78.75H209.004V73.75H69V78.75Z" fill="#5EB299"/>
<path d="M0.666667 151C0.666667 158.364 6.6362 164.333 14 164.333C21.3638 164.333 27.3333 158.364 27.3333 151C27.3333 143.636 21.3638 137.667 14 137.667C6.6362 137.667 0.666667 143.636 0.666667 151ZM195.669 151C195.669 158.364 201.639 164.333 209.003 164.333C216.366 164.333 222.336 158.364 222.336 151C222.336 143.636 216.366 137.667 209.003 137.667C201.639 137.667 195.669 143.636 195.669 151ZM14 153.5H209.003V148.5H14V153.5Z" fill="#5EB299"/>
<path d="M74 223.5C72.6193 223.5 71.5 224.619 71.5 226C71.5 227.381 72.6193 228.5 74 228.5V223.5ZM195.667 226C195.667 233.364 201.636 239.333 209 239.333C216.364 239.333 222.333 233.364 222.333 226C222.333 218.636 216.364 212.667 209 212.667C201.636 212.667 195.667 218.636 195.667 226ZM74 228.5L209 228.5V223.5L74 223.5V228.5Z" fill="#5EB299"/>
<path d="M70.0035 77.4953C70.8293 76.3888 70.6018 74.8224 69.4953 73.9965C68.3888 73.1707 66.8224 73.3982 65.9965 74.5047L70.0035 77.4953ZM21.0133 143.134L70.0035 77.4953L65.9965 74.5047L17.0063 140.143L21.0133 143.134Z" fill="#5EB299"/>
<path d="M69.9667 227.455C70.77 228.577 72.3316 228.837 73.4545 228.033C74.5775 227.23 74.8366 225.668 74.0333 224.545L69.9667 227.455ZM74.0333 224.545L25.0235 156.034L20.9569 158.943L69.9667 227.455L74.0333 224.545Z" fill="#5EB299"/>
<path d="M269.024 24.5001C267.643 24.4868 266.513 25.5953 266.5 26.976C266.487 28.3566 267.595 29.4866 268.976 29.4999L269.024 24.5001ZM322.667 27.5162C322.597 34.8797 328.508 40.9063 335.872 40.9772C343.235 41.048 349.262 35.1361 349.333 27.7727C349.404 20.4092 343.492 14.3825 336.128 14.3117C328.765 14.2409 322.738 20.1527 322.667 27.5162ZM268.976 29.4999L335.976 30.1443L336.024 25.1446L269.024 24.5001L268.976 29.4999Z" fill="#5EB299"/>
<path d="M268.024 271.5C266.643 271.487 265.513 272.595 265.5 273.976C265.487 275.357 266.595 276.487 267.976 276.5L268.024 271.5ZM321.667 274.516C321.597 281.88 327.508 287.906 334.872 287.977C342.235 288.048 348.262 282.136 348.333 274.773C348.404 267.409 342.492 261.383 335.128 261.312C327.765 261.241 321.738 267.153 321.667 274.516ZM267.976 276.5L334.976 277.144L335.024 272.145L268.024 271.5L267.976 276.5Z" fill="#5EB299"/>
<path d="M269.5 109C268.119 109 267 110.119 267 111.5C267 112.881 268.119 114 269.5 114V109ZM323.513 111.5C323.513 118.864 329.483 124.833 336.846 124.833C344.21 124.833 350.18 118.864 350.18 111.5C350.18 104.136 344.21 98.1667 336.846 98.1667C329.483 98.1667 323.513 104.136 323.513 111.5ZM269.5 114H336.846V109H269.5V114Z" fill="#5EB299"/>
<path d="M267.5 194C266.119 194 265 195.119 265 196.5C265 197.881 266.119 199 267.5 199V194ZM323.167 196.5C323.167 203.864 329.136 209.833 336.5 209.833C343.864 209.833 349.833 203.864 349.833 196.5C349.833 189.136 343.864 183.167 336.5 183.167C329.136 183.167 323.167 189.136 323.167 196.5ZM267.5 199H336.5V194H267.5V199Z" fill="#5EB299"/>
<line x1="408.5" y1="290.046" x2="408.5" y2="19" stroke="#5EB299" stroke-width="3"/>
<path d="M467.032 124V34.4H480.728L536.92 103.392H530.136V34.4H546.648V124H532.952L476.76 55.008H483.544V124H467.032ZM570.657 124V34.4H584.353L623.521 99.808H616.353L654.881 34.4H668.577L668.705 124H652.961L652.833 59.104H656.161L623.393 113.76H615.969L582.689 59.104H586.529V124H570.657ZM734.379 125.28C727.552 125.28 721.195 124.171 715.307 121.952C709.504 119.648 704.427 116.448 700.075 112.352C695.808 108.171 692.48 103.264 690.091 97.632C687.702 92 686.507 85.856 686.507 79.2C686.507 72.544 687.702 66.4 690.091 60.768C692.48 55.136 695.851 50.272 700.203 46.176C704.555 41.9947 709.632 38.7947 715.435 36.576C721.238 34.272 727.595 33.12 734.507 33.12C741.846 33.12 748.544 34.4 754.603 36.96C760.662 39.4347 765.782 43.1467 769.963 48.096L759.211 58.208C755.968 54.7093 752.342 52.1067 748.331 50.4C744.32 48.608 739.968 47.712 735.275 47.712C730.582 47.712 726.272 48.48 722.347 50.016C718.507 51.552 715.136 53.728 712.235 56.544C709.419 59.36 707.2 62.688 705.579 66.528C704.043 70.368 703.275 74.592 703.275 79.2C703.275 83.808 704.043 88.032 705.579 91.872C707.2 95.712 709.419 99.04 712.235 101.856C715.136 104.672 718.507 106.848 722.347 108.384C726.272 109.92 730.582 110.688 735.275 110.688C739.968 110.688 744.32 109.835 748.331 108.128C752.342 106.336 755.968 103.648 759.211 100.064L769.963 110.304C765.782 115.168 760.662 118.88 754.603 121.44C748.544 124 741.803 125.28 734.379 125.28ZM494.808 281.28C487.811 281.28 481.112 280.299 474.712 278.336C468.312 276.288 463.235 273.685 459.48 270.528L465.24 257.6C468.824 260.416 473.261 262.763 478.552 264.64C483.843 266.517 489.261 267.456 494.808 267.456C499.501 267.456 503.299 266.944 506.2 265.92C509.101 264.896 511.235 263.531 512.6 261.824C513.965 260.032 514.648 258.027 514.648 255.808C514.648 253.077 513.667 250.901 511.704 249.28C509.741 247.573 507.181 246.251 504.024 245.312C500.952 244.288 497.496 243.349 493.656 242.496C489.901 241.643 486.104 240.661 482.264 239.552C478.509 238.357 475.053 236.864 471.896 235.072C468.824 233.195 466.307 230.72 464.344 227.648C462.381 224.576 461.4 220.651 461.4 215.872C461.4 211.008 462.68 206.571 465.24 202.56C467.885 198.464 471.853 195.221 477.144 192.832C482.52 190.357 489.304 189.12 497.496 189.12C502.872 189.12 508.205 189.803 513.496 191.168C518.787 192.533 523.395 194.496 527.32 197.056L522.072 209.984C518.061 207.595 513.923 205.845 509.656 204.736C505.389 203.541 501.293 202.944 497.368 202.944C492.76 202.944 489.005 203.499 486.104 204.608C483.288 205.717 481.197 207.168 479.832 208.96C478.552 210.752 477.912 212.8 477.912 215.104C477.912 217.835 478.851 220.053 480.728 221.76C482.691 223.381 485.208 224.661 488.28 225.6C491.437 226.539 494.936 227.477 498.776 228.416C502.616 229.269 506.413 230.251 510.168 231.36C514.008 232.469 517.464 233.92 520.536 235.712C523.693 237.504 526.211 239.936 528.088 243.008C530.051 246.08 531.032 249.963 531.032 254.656C531.032 259.435 529.709 263.872 527.064 267.968C524.504 271.979 520.536 275.221 515.16 277.696C509.784 280.085 503 281.28 494.808 281.28ZM589.516 281.28C582.519 281.28 576.076 280.128 570.188 277.824C564.3 275.52 559.18 272.32 554.828 268.224C550.476 264.043 547.105 259.179 544.716 253.632C542.327 248 541.132 241.856 541.132 235.2C541.132 228.544 542.327 222.443 544.716 216.896C547.105 211.264 550.476 206.4 554.828 202.304C559.18 198.123 564.3 194.88 570.188 192.576C576.076 190.272 582.476 189.12 589.388 189.12C596.385 189.12 602.785 190.272 608.588 192.576C614.476 194.88 619.596 198.123 623.948 202.304C628.3 206.4 631.671 211.264 634.06 216.896C636.449 222.443 637.644 228.544 637.644 235.2C637.644 241.856 636.449 248 634.06 253.632C631.671 259.264 628.3 264.128 623.948 268.224C619.596 272.32 614.476 275.52 608.588 277.824C602.785 280.128 596.428 281.28 589.516 281.28ZM589.388 266.688C593.911 266.688 598.092 265.92 601.932 264.384C605.772 262.848 609.1 260.672 611.916 257.856C614.732 254.955 616.908 251.627 618.444 247.872C620.065 244.032 620.876 239.808 620.876 235.2C620.876 230.592 620.065 226.411 618.444 222.656C616.908 218.816 614.732 215.488 611.916 212.672C609.1 209.771 605.772 207.552 601.932 206.016C598.092 204.48 593.911 203.712 589.388 203.712C584.865 203.712 580.684 204.48 576.844 206.016C573.089 207.552 569.761 209.771 566.86 212.672C564.044 215.488 561.825 218.816 560.204 222.656C558.668 226.411 557.9 230.592 557.9 235.2C557.9 239.723 558.668 243.904 560.204 247.744C561.825 251.584 564.044 254.955 566.86 257.856C569.676 260.672 573.004 262.848 576.844 264.384C580.684 265.92 584.865 266.688 589.388 266.688ZM655.282 280V190.4H671.922V265.92H718.77V280H655.282ZM769.185 281.28C756.897 281.28 747.254 277.824 740.257 270.912C733.345 264 729.889 254.016 729.889 240.96V190.4H746.529V240.32C746.529 249.536 748.492 256.235 752.417 260.416C756.428 264.597 762.06 266.688 769.313 266.688C776.566 266.688 782.156 264.597 786.081 260.416C790.006 256.235 791.969 249.536 791.969 240.32V190.4H808.353V240.96C808.353 254.016 804.854 264 797.857 270.912C790.945 277.824 781.388 281.28 769.185 281.28ZM848.208 280V204.48H818.512V190.4H894.544V204.48H864.848V280H848.208ZM907.032 280V190.4H923.672V280H907.032ZM989.891 281.28C982.894 281.28 976.451 280.128 970.563 277.824C964.675 275.52 959.555 272.32 955.203 268.224C950.851 264.043 947.48 259.179 945.091 253.632C942.702 248 941.507 241.856 941.507 235.2C941.507 228.544 942.702 222.443 945.091 216.896C947.48 211.264 950.851 206.4 955.203 202.304C959.555 198.123 964.675 194.88 970.563 192.576C976.451 190.272 982.851 189.12 989.763 189.12C996.76 189.12 1003.16 190.272 1008.96 192.576C1014.85 194.88 1019.97 198.123 1024.32 202.304C1028.68 206.4 1032.05 211.264 1034.44 216.896C1036.82 222.443 1038.02 228.544 1038.02 235.2C1038.02 241.856 1036.82 248 1034.44 253.632C1032.05 259.264 1028.68 264.128 1024.32 268.224C1019.97 272.32 1014.85 275.52 1008.96 277.824C1003.16 280.128 996.803 281.28 989.891 281.28ZM989.763 266.688C994.286 266.688 998.467 265.92 1002.31 264.384C1006.15 262.848 1009.48 260.672 1012.29 257.856C1015.11 254.955 1017.28 251.627 1018.82 247.872C1020.44 244.032 1021.25 239.808 1021.25 235.2C1021.25 230.592 1020.44 226.411 1018.82 222.656C1017.28 218.816 1015.11 215.488 1012.29 212.672C1009.48 209.771 1006.15 207.552 1002.31 206.016C998.467 204.48 994.286 203.712 989.763 203.712C985.24 203.712 981.059 204.48 977.219 206.016C973.464 207.552 970.136 209.771 967.235 212.672C964.419 215.488 962.2 218.816 960.579 222.656C959.043 226.411 958.275 230.592 958.275 235.2C958.275 239.723 959.043 243.904 960.579 247.744C962.2 251.584 964.419 254.955 967.235 257.856C970.051 260.672 973.379 262.848 977.219 264.384C981.059 265.92 985.24 266.688 989.763 266.688ZM1055.66 280V190.4H1069.35L1125.55 259.392H1118.76V190.4H1135.27V280H1121.58L1065.39 211.008H1072.17V280H1055.66ZM1187.06 281.28C1180.06 281.28 1173.36 280.299 1166.96 278.336C1160.56 276.288 1155.48 273.685 1151.73 270.528L1157.49 257.6C1161.07 260.416 1165.51 262.763 1170.8 264.64C1176.09 266.517 1181.51 267.456 1187.06 267.456C1191.75 267.456 1195.55 266.944 1198.45 265.92C1201.35 264.896 1203.48 263.531 1204.85 261.824C1206.22 260.032 1206.9 258.027 1206.9 255.808C1206.9 253.077 1205.92 250.901 1203.95 249.28C1201.99 247.573 1199.43 246.251 1196.27 245.312C1193.2 244.288 1189.75 243.349 1185.91 242.496C1182.15 241.643 1178.35 240.661 1174.51 239.552C1170.76 238.357 1167.3 236.864 1164.15 235.072C1161.07 233.195 1158.56 230.72 1156.59 227.648C1154.63 224.576 1153.65 220.651 1153.65 215.872C1153.65 211.008 1154.93 206.571 1157.49 202.56C1160.14 198.464 1164.1 195.221 1169.39 192.832C1174.77 190.357 1181.55 189.12 1189.75 189.12C1195.12 189.12 1200.46 189.803 1205.75 191.168C1211.04 192.533 1215.64 194.496 1219.57 197.056L1214.32 209.984C1210.31 207.595 1206.17 205.845 1201.91 204.736C1197.64 203.541 1193.54 202.944 1189.62 202.944C1185.01 202.944 1181.26 203.499 1178.35 204.608C1175.54 205.717 1173.45 207.168 1172.08 208.96C1170.8 210.752 1170.16 212.8 1170.16 215.104C1170.16 217.835 1171.1 220.053 1172.98 221.76C1174.94 223.381 1177.46 224.661 1180.53 225.6C1183.69 226.539 1187.19 227.477 1191.03 228.416C1194.87 229.269 1198.66 230.251 1202.42 231.36C1206.26 232.469 1209.71 233.92 1212.79 235.712C1215.94 237.504 1218.46 239.936 1220.34 243.008C1222.3 246.08 1223.28 249.963 1223.28 254.656C1223.28 259.435 1221.96 263.872 1219.31 267.968C1216.75 271.979 1212.79 275.221 1207.41 277.696C1202.03 280.085 1195.25 281.28 1187.06 281.28Z" fill="#5EB299"/>
</svg>
