<svg width="351" height="274" viewBox="0 0 351 274" fill="none" xmlns="http://www.w3.org/2000/svg">
<line x1="210.419" y1="142.942" x2="268.419" y2="182.942" stroke="#5EB299" stroke-width="5"/>
<path d="M269.961 100C271.144 99.2874 271.525 97.751 270.812 96.5684C270.099 95.3859 268.563 95.0051 267.38 95.7178L269.961 100ZM208 137.346L269.961 100L267.38 95.7178L205.418 133.064L208 137.346Z" fill="#5EB299"/>
<path d="M270.001 14.9999C271.07 14.1268 271.23 12.5519 270.357 11.4823C269.483 10.4127 267.909 10.2534 266.839 11.1266L270.001 14.9999ZM212.001 62.3458L270.001 14.9999L266.839 11.1266L208.839 58.4725L212.001 62.3458Z" fill="#5EB299"/>
<line x1="2.5" y1="-2.5" x2="72.3708" y2="-2.5" transform="matrix(-0.774668 -0.632369 -0.632369 0.774668 268 263.346)" stroke="#5EB299" stroke-width="5" stroke-linecap="round"/>
<path d="M69 59.75C67.6193 59.75 66.5 60.8693 66.5 62.25C66.5 63.6307 67.6193 64.75 69 64.75V59.75ZM195.67 62.25C195.67 69.6138 201.64 75.5833 209.004 75.5833C216.368 75.5833 222.337 69.6138 222.337 62.25C222.337 54.8862 216.368 48.9167 209.004 48.9167C201.64 48.9167 195.67 54.8862 195.67 62.25ZM69 64.75H209.004V59.75H69V64.75Z" fill="#5EB299"/>
<path d="M0.666667 137C0.666667 144.364 6.6362 150.333 14 150.333C21.3638 150.333 27.3333 144.364 27.3333 137C27.3333 129.636 21.3638 123.667 14 123.667C6.6362 123.667 0.666667 129.636 0.666667 137ZM195.669 137C195.669 144.364 201.639 150.333 209.003 150.333C216.366 150.333 222.336 144.364 222.336 137C222.336 129.636 216.366 123.667 209.003 123.667C201.639 123.667 195.669 129.636 195.669 137ZM14 139.5H209.003V134.5H14V139.5Z" fill="#5EB299"/>
<path d="M74 209.5C72.6193 209.5 71.5 210.619 71.5 212C71.5 213.381 72.6193 214.5 74 214.5V209.5ZM195.667 212C195.667 219.364 201.636 225.333 209 225.333C216.364 225.333 222.333 219.364 222.333 212C222.333 204.636 216.364 198.667 209 198.667C201.636 198.667 195.667 204.636 195.667 212ZM74 214.5L209 214.5V209.5L74 209.5V214.5Z" fill="#5EB299"/>
<path d="M70.0035 63.4953C70.8293 62.3888 70.6018 60.8224 69.4953 59.9965C68.3888 59.1707 66.8224 59.3982 65.9965 60.5047L70.0035 63.4953ZM21.0133 129.134L70.0035 63.4953L65.9965 60.5047L17.0063 126.143L21.0133 129.134Z" fill="#5EB299"/>
<path d="M69.9667 213.455C70.77 214.577 72.3316 214.837 73.4545 214.033C74.5775 213.23 74.8366 211.668 74.0333 210.545L69.9667 213.455ZM74.0333 210.545L25.0235 142.034L20.9569 144.943L69.9667 213.455L74.0333 210.545Z" fill="#5EB299"/>
<path d="M269.024 10.5001C267.643 10.4868 266.513 11.5953 266.5 12.976C266.487 14.3566 267.595 15.4866 268.976 15.4999L269.024 10.5001ZM322.667 13.5162C322.597 20.8797 328.508 26.9063 335.872 26.9772C343.235 27.048 349.262 21.1361 349.333 13.7727C349.404 6.40922 343.492 0.382543 336.128 0.311719C328.765 0.240894 322.738 6.15274 322.667 13.5162ZM268.976 15.4999L335.976 16.1443L336.024 11.1446L269.024 10.5001L268.976 15.4999Z" fill="#5EB299"/>
<path d="M268.024 257.5C266.643 257.487 265.513 258.595 265.5 259.976C265.487 261.357 266.595 262.487 267.976 262.5L268.024 257.5ZM321.667 260.516C321.597 267.88 327.508 273.906 334.872 273.977C342.235 274.048 348.262 268.136 348.333 260.773C348.404 253.409 342.492 247.383 335.128 247.312C327.765 247.241 321.738 253.153 321.667 260.516ZM267.976 262.5L334.976 263.144L335.024 258.145L268.024 257.5L267.976 262.5Z" fill="#5EB299"/>
<path d="M269.5 95C268.119 95 267 96.1193 267 97.5C267 98.8807 268.119 100 269.5 100V95ZM323.513 97.5C323.513 104.864 329.483 110.833 336.846 110.833C344.21 110.833 350.18 104.864 350.18 97.5C350.18 90.1362 344.21 84.1667 336.846 84.1667C329.483 84.1667 323.513 90.1362 323.513 97.5ZM269.5 100H336.846V95H269.5V100Z" fill="#5EB299"/>
<path d="M267.5 180C266.119 180 265 181.119 265 182.5C265 183.881 266.119 185 267.5 185V180ZM323.167 182.5C323.167 189.864 329.136 195.833 336.5 195.833C343.864 195.833 349.833 189.864 349.833 182.5C349.833 175.136 343.864 169.167 336.5 169.167C329.136 169.167 323.167 175.136 323.167 182.5ZM267.5 185H336.5V180H267.5V185Z" fill="#5EB299"/>
</svg>
